<?xml version="1.0" encoding="utf-8"?>
<!-- Generator: Adobe Illustrator 27.5.0, SVG Export Plug-In . SVG Version: 6.00 Build 0)  -->
<svg version="1.1" xmlns="http://www.w3.org/2000/svg" xmlns:xlink="http://www.w3.org/1999/xlink" x="0px" y="0px"
	 viewBox="0 0 1000 1000" style="enable-background:new 0 0 1000 1000;" xml:space="preserve">
<g id="BG">
	<rect style="fill:#FFFFFF;" width="1000" height="1000"/>
</g>
<g id="Object">
	<g>
		<path style="fill:#1A1A1A;" d="M660.426,303.292c-3.302,7.208-20.989,3.189-17.95-2.559c4.087-2.384,8.585-3.684,13.487-3.896
			c-20.06-28.393-44.397-54.696-74.854-72.197c-0.918,0.077-1.832,0.16-2.771,0.222c-0.506-0.836-0.784-1.615-0.939-2.368
			c-9.617-5.562-19.911-11.924-30.679-14.663c33.186-14.246,27.34-66.125,13.348-90.354c-21.7-37.582-61.625-41.72-98.877-28.547
			c-45.755,16.185-85.906,95.998-23.032,118.302c-4.489,0.98-8.88,2.301-13.167,3.957c0.377,0.14,0.733,0.315,1.068,0.526
			c-1.156,1.166-2.306,2.337-3.462,3.514c-1.017,0.211-2.048,0.392-3.091,0.542c-0.753-0.398-1.501-0.8-2.255-1.197
			c-71.604,35.539-122.007,132.15-134.813,207.691c3.968,0.15,5.48,1.77,5.692,4.174c-1.296,0.196-2.586,0.392-3.875,0.593
			c-0.815-0.201-1.651-0.366-2.487-0.526c-12.16,84.61-11.325,173.808-29.352,257.191c0.438,1.45,0.191,2.477-0.733,3.075
			c-5.954,24.275-11.226,48.865-19.807,72.367c-1.857,5.092-37.468,67.012-34.445,72.016c-1.832,1.986-3.7,3.829-5.608,5.5
			c21.618,31.545,67.415,37.979,101.616,42.633c47.787,6.501,97.081,13.507,145.286,14.307
			c-5.067-14.638-12.692-23.625-32.113-21.83c-0.01-0.779-0.026-1.563-0.041-2.342c16.557,1.733,33.48,0.97,50.109,1.306
			c1.373,0.567,2.746,1.14,4.117,1.713c-0.149,1.486-0.294,2.972-0.443,4.463c-1.058,0.108-2.115,0.206-3.179,0.294
			c-4.752-2.291-17.207-2.022-10.985,6.016c-0.949,3.519-4.204,6.749-3.679,10.443c25.24,0.428,50.244-0.279,75.463-0.852
			c3.72-3.168,8.101-4.122,13.136-2.858l0.015,0.011c-0.676,1.058-1.222,1.872-1.723,2.574c17.052-0.722,34.084-1.548,51.1-2.895
			c-4.205-2.151-4.174-3.885,0.093-5.195c3.864,0.217,5.613,1.806,5.247,4.777c12.45-0.985,24.915-1.878,37.37-2.827
			c23.579-1.997,48.778-3.751,71.882-8.4c-13.414-2.445,9.906-8.044,9.065-1.713c9.875-1.527,78.053-7.285,82.898-20.06
			c14.292-6.506,15.726-11.351,15.726-11.351c-62.616-74.761-70.2-177.084-80.947-269.563
			C711.454,485.928,712.44,380.607,660.426,303.292z M651.114,317.347c0.578,6.377-156.472,29.368-155.786,17.455
			c0.052-0.991,38.691-2.126,41.487-2.275c-7.673-1.532,4.616-4.037,6.508-4.475c0.008-0.015,0.016-0.03,0.024-0.045
			c0.321-0.043,0.269-0.023-0.024,0.045c-0.739,1.383-1.48,2.772-2.225,4.155c32.494-2.74,63.674-10.071,95.838-14.493
			C638.524,317.434,650.881,314.741,651.114,317.347z M530.391,340.368c-0.356,2.796-0.712,5.593-1.068,8.39
			c-4.024,1.233-6.119,0.077-7.182-2.343C522.069,340.095,524.819,338.082,530.391,340.368z M630.93,301.012
			c0.443,3.364-110.744,23.945-111.074,12.718c0.026,0.82,90.374-11.33,100.946-12.785
			C622.267,300.712,630.594,298.447,630.93,301.012z M539.302,301.827c-0.114-0.82,29.837-7.115,30.137-4.839
			C569.624,298.406,540.561,311.506,539.302,301.827z M584.215,294.015c-0.098-0.79,32.985-8.885,31.917-5.428
			C615.064,291.869,585.269,302.348,584.215,294.015z M601.67,266.592c0.125,1.205-59.342,17.611-64.052,9.53
			c-2.602,3.719-6.374,6.792-10.673,6.97c-0.15,0.634-0.521,1.207-1.104,1.733c3.178,2.121,6.578,3.606,10.195,4.458
			c21.752-4.293,45.776-9.169,67.677-11.934c1.553-0.165,11.872-3.741,12.424-0.939c0.696,3.446-68.374,18.94-74.245,17.625
			c-0.758,0.558-1.522,1.115-2.27,1.682c0.103,3.473-2.564,3.896-2.719,0.098c-4.927-1.439-9.86-2.879-14.792-4.313
			c-8.146,3.039-13.363,1.171-15.654-5.603c4.525-3.276,9.572-4.412,15.148-3.411c0.083-1.563,0.16-3.126,0.243-4.685
			c-5.072-2.177-5.072-2.42,0-4.618c0.309-0.723,0.563-1.46,0.769-2.198c3.581-2.306,7.502-3.818,11.769-4.54
			c-5.608-3.679,50.393-12.579,50.661-10.489c0.341,2.601-38.304,10.454-42.045,11.439c-0.361,1.279-1.078,2.487-2.652,3.544
			c-0.488,1.322-1.154,2.684-1.961,3.999c7.31-1.669,50.7-8.488,56.471-9.159C596.237,265.638,601.391,264.013,601.67,266.592z
			 M576.368,246.538c1.698,0.144,15.815-1.378,15.757,1.491c0.01-0.32-95.817,16.562-96.896,9.236
			C495.002,255.763,567.091,245.609,576.368,246.538z M520.702,210.106c-1.414-5.144,6.893-8.121,10.175-3.648
			C527.554,207.753,525.139,210.065,520.702,210.106z M531.201,214.084c1.723-1.419,4.984,0.856,4.097,3.039
			c-1.986,4.819-27.794,1.563-21.649-3.266C516.528,211.376,526.671,217.309,531.201,214.084z M520.908,197.218
			c-10.979-2.497-11.046-0.083-21.236-8.472c11.923-0.511,21.04,2.203,26.38,9.251C524.335,197.744,522.559,197.589,520.908,197.218
			z M572.049,234.743l-1.047,2.745c0.665,0.232,1.305,0.588,1.884,1.001c-0.806,0.124-1.61,0.247-2.41,0.376l-0.815,2.136
			c-0.557-0.588-1.042-1.244-1.44-1.956c-13.064-0.485-25.065,2.193-37.943,2.791c-3.942,0.181-35.962-1.094-20.736-3.508
			c-2.012-2.089,2.755-0.402,2.606-0.469l-0.005,0.005h0.005c-0.196,0.134-0.392,0.268-0.588,0.402
			c13.028,2.162,31.267-0.464,44.552-2.507C561.416,234.887,566.643,234.433,572.049,234.743z M546.84,220.012
			c1.378,0.062,5.454-0.769,5.33,1.77c-0.01,0.273-50.811,12.017-51.961,3.73C499.935,223.588,541.608,219.894,546.84,220.012z
			 M437.603,166.679c-3.044-19.905,3.988-37.138,19.286-49.278c1.223-0.97,43.871-20.875,44.165-12.378
			c-0.021-0.531-40.105,13.105-42.164,14.735c-10.887,8.601-17.62,21.417-17.48,35.564c9.896-0.485,19.596,0.65,29.1,3.405
			c-6.604-28.965,37.108-38.897,50.388-14.838c1.852-0.351,3.699-0.707,5.546-1.063c2.454,0.742,4.903,1.479,7.346,2.222
			c0.004-0.001,0.008-0.002,0.012-0.003c1.037-0.397,2.09-0.795,3.137-1.192c0.001,0.001,0.002,0.001,0.003,0.001
			c0.001-0.001,0.002-0.001,0.002-0.001c3.282,1.388,5.329,2.272,6.315,3.023c-0.073-1.773-0.313-3.368-0.784-4.69
			c-2.415-6.759-18.662-31.473-23.161-30.199c14.828-4.014,26.788,27.335,29.012,37.463c0.624,2.837-8.199,54.752-15.633,40.146
			c-0.304-0.603,11.167-28.105,10.566-42.721c-0.986-0.751-3.034-1.634-6.317-3.022c-1.031,0.438-2.082,0.84-3.145,1.196
			c-0.002-0.001-0.005-0.002-0.007-0.002c-3.752,0.958-7.498,1.912-11.251,2.866c6.543,24.791-12.017,27.123-25.225,41.348
			c-3.354-0.046-7.007-0.851-10.979-2.92c-0.444-1.45-1.022-2.843-1.734-4.179c-0.387,0.269-0.846,0.537-1.476,0.815
			c-0.206-1.388-0.423-2.781-0.634-4.174c0.221,0.067,0.386,0.139,0.587,0.211c-2.961-5.629-8.25-9.808-10.99-15.633
			c-10.489-0.666-20.359-3.194-30.549-4.772c0.34,3.977,17.728,38.381,17.496,38.701C454,204.482,437.892,168.02,437.603,166.679z
			 M482.795,231.802c-0.062,0.124-0.119,0.248-0.181,0.371l-0.284-0.16C482.434,231.931,482.604,231.864,482.795,231.802
			c0.243-0.501,0.485-1.006,0.733-1.506C485.354,231.379,483.744,231.498,482.795,231.802z M482.883,233.081
			c-0.093-0.309-0.294-0.604-0.464-0.903C482.589,232.477,482.79,232.772,482.883,233.081z M483.265,274.043
			c4.142-13.848,7.568,17.15,5.752,13.11C487.567,283.928,479.757,285.703,483.265,274.043z M443.624,207.826
			c-0.428,1.46,58.674,3.054,47.132,6.64C485.086,215.977,440.59,218.206,443.624,207.826z M439.409,207.599
			c-0.037,0.016-0.068,0.031-0.103,0.052c0-0.026,0-0.057-0.006-0.078C439.336,207.578,439.373,207.588,439.409,207.599z
			 M425.762,224.176c3.632-1.202,50.181,4.85,50.145,3.488C476.197,238.669,421.835,225.337,425.762,224.176z M466.037,285.961
			c-0.159,0.439-1.677,0.676-2.595,1.001c-1.295-1.997-1.502-3.41,1.419-2.889C465.655,284.543,466.047,285.172,466.037,285.961z
			 M407.033,239.139c0.929-0.32,7.147-1.383,5.949,1.496c3.957-0.072,52.323,3.194,52.323,3.06
			c0.006,1.486-53.69,9.824-56.012-1.733C406.764,242.322,399.293,241.79,407.033,239.139z M393.484,254.504
			c5.025,0.702,63.699,6.248,63.668,4.927c0.134,4.349-31.519,3.002-35.74,2.873C411.037,261.98,391.389,254.215,393.484,254.504z
			 M431.633,326.995c0.918-0.965,2.244-1.764,3.379-2.642c0.986-9.318,25.127-8.544,18.672,5.015
			C447.716,341.89,423.786,335.234,431.633,326.995z M432.428,341.947l-0.335,0.144l0.33-0.144H432.428z M385.708,246.919
			c0.738-0.665,1.646-1.006,2.725-1.022C397.751,248.627,382.438,253.172,385.708,246.919z M446.807,277.742
			c-1.151,8.25-68.59-5.696-68.229-5.805C384.367,269.977,446.978,276.52,446.807,277.742z M374.848,282.185
			c-2.843-0.082-5.645-0.48-8.281-1.182L374.848,282.185z M430.065,295.486c-1.151,9.493-66.913-5.417-66.176-5.629
			C369.405,288.139,430.075,295.362,430.065,295.486z M353.745,301.104c-0.067,0.217,37.773,4.53,37.732,5.366
			C391.348,308.947,350.557,311.996,353.745,301.104z M344.159,310.706c-0.299,0.826,72.429,14.416,72.439,14.364
			C416.062,328.362,340,322.073,344.159,310.706z M382.592,760.141c-0.547,8.162-138.104-19.333-136.433-23.992
			C245.417,738.223,382.835,756.462,382.592,760.141z M256.772,719.344c0.113-0.32,95.626,15.963,93.707,24.105
			C349.772,746.488,255.911,721.81,256.772,719.344z M376.375,774.432c8.41-2.972,16.051,1.517,18.29,11.428
			C395.548,786.046,368.853,783.224,376.375,774.432z M386.08,789.978h-0.005c-0.464-0.341-0.892-0.857-1.377-1.125
			C385.183,789.121,385.61,789.637,386.08,789.978z M338.525,770.604c-0.758,9.328-92.324-18.595-93.537-18.322
			C253.233,750.502,338.757,767.813,338.525,770.604z M235.939,773.519c-1.682,4.324,163.293,25.565,163.288,25.194
			c0.067,3.132-40.456,0.495-43.423,0.175c11.877,3.818-12.083,20.545-10.458,6.176c-0.242-0.016-0.48-0.036-0.722-0.057
			c-0.16-4.138,1.987-6.331,6.439-6.573C342.978,797.727,233.219,780.469,235.939,773.519z M371.024,808.506
			c-0.232,0.475-1.671,0.712-2.58,1.052c-1.971-1.661-1.517-2.611,1.357-2.833C370.261,807.329,371.252,808.036,371.024,808.506z
			 M334.511,806.762c-1.202,0-2.404,0-3.606,0c0.18-0.764,0.356-1.532,0.536-2.301C332.467,805.229,333.489,805.998,334.511,806.762
			z M375.111,823.329c-0.036,9.493-146.453-22.444-144.363-28.182C229.602,798.321,375.126,820.831,375.111,823.329z
			 M324.166,832.864c-5.794,1.708-5.83,1.697-8.441-2.337C320.07,829.081,322.412,830.537,324.166,832.864z M227.508,805.823
			c4.421-0.005,6.041,1.677,6.258,4.195c-1.29,0.196-2.58,0.397-3.874,0.598c-1.073-0.268-2.167-0.501-3.276-0.696
			C226.909,808.552,227.203,807.185,227.508,805.823z M298.658,860.462c-0.656,0.521-1.316,1.042-1.971,1.558
			c-6.197,0.918-8.673,4.272-7.44,10.056c-13.131,0.47-7.069-6.542-5.082-14.261c-9.205-1.883-78.038-21.531-75.783-25.973
			c0.573-1.13,126.692,34.486,134.328,33.367C329.32,867.371,311.706,862.84,298.658,860.462z M280.47,844.411
			c1.759,0.717,3.519,1.434,5.278,2.151c0.562-0.093,1.217-0.098,1.682-0.294c-0.464,0.196-1.12,0.201-1.682,0.294
			C282.498,848.966,280.656,849.56,280.47,844.411z M219.175,812.891c-1.068,2.575,163.345,34.104,163.19,35.817
			c-0.16,1.795-12.867,0.398-14.493,0.294C359.111,848.409,216.374,819.64,219.175,812.891z M385.631,873.685
			c-7.929,2.167-8.059,1.982-11.418-4.215c2.286-4.401,9.463-4.499,14.385-6.583c4.38,0.629,7.497,2.518,10.69,4.334
			c0.026,1.496,0.041,2.993,0.062,4.494C394.588,871.838,390.11,872.458,385.631,873.685z M444.176,778.581
			c-0.403,3.472-5.65,2.626-5.247-0.031c0.434-2.853,4.649-2.043,5.247,0.026V778.581z M439.12,746.71h-0.005
			c3.617-0.908,7.26-1.702,10.923-2.389C447.102,746.411,443.443,747.175,439.12,746.71z M469.483,752.303
			c-1.728-0.243-3.379-0.712-5.067-1.079c-0.789,0.248-1.573,0.5-2.363,0.753c0.743-0.289,1.481-0.573,2.224-0.856h0.005
			l-0.005-0.005C467.807,744.486,480.566,753.851,469.483,752.303z M479.317,759.717c-0.949-0.645-0.846-1.14,0.31-1.476
			c0.233,0.268,0.464,0.542,0.753,0.867C480.04,759.305,479.679,759.511,479.317,759.717z M523.792,784.462
			c-1.636,0.557-2.673,0.304-3.111-0.758c0,0,0.201,0.31,0.191,0.284C523.441,782.708,524.417,782.868,523.792,784.462z
			 M549.198,883.519l-0.82-0.712l1.397-0.057L549.198,883.519z M708.172,862.913c-11,0.469,0.119-8.694,3.091-2.059
			C711.268,862.159,710.019,862.835,708.172,862.913z M784.714,830.599c2.884,11.444-167.06,39.599-178.524,40.477
			c-3.895,0.237-28.945,0.268-28.945-3.075C577.265,872.752,786.654,838.292,784.714,830.599z M778.135,818.69
			c1.981,1.027,1.971,1.476-0.031,1.347c-0.48-0.273-0.888-0.5-1.295-0.732C777.254,819.093,777.661,818.727,778.135,818.69z
			 M773.146,813.949c1.914,10.469-187.295,37.504-201.205,36.741c-1.785-0.077-22.403,0.697-22.418-2.58
			C549.544,850.359,774.405,820.863,773.146,813.949z M660.406,832.734c0.944-0.593,1.568-0.407,1.868,0.568
			C661.329,833.896,660.705,833.705,660.406,832.734z M753.246,796.778c1.801,6.924-151.421,44.047-152.252,31.04
			C601.138,830.026,754.159,800.302,753.246,796.778z M751.136,775.382c0.007,0.039,0,0.079-0.021,0.121
			c-0.609,6.757-147.798,33.833-158.979,35.603c0.036,1.377-0.888,1.95-2.776,1.728c-1.032-0.175-1.754-0.516-2.136-0.959
			c-15.675,2.419-30.962,5.572-46.931,4.917c-3.261,0.252-6.29-0.351-9.095-1.811c-0.031-0.482,217.342-34.123,219.918-39.478
			C751.118,775.463,751.142,775.42,751.136,775.382z M748.963,757.292c2.105,10.933-219.619,46.147-219.537,32.644
			C529.416,792.986,750.346,764.608,748.963,757.292z M599.632,758.479c5.553,0.253,8.642,2.595,9.272,7.032
			c9.793-1.357,126.449-24.967,126.078-26.566c1.868,8.095-177.585,46.162-178.189,33.5c-0.077-1.44,42.164-5.685,45.543-6.088
			C600.375,764.067,600.014,761.271,599.632,758.479z M702.781,734.73h0.005c1.419,1.687,2.838,3.374,4.262,5.062
			C705.623,738.104,704.205,736.412,702.781,734.73z M738.908,738.011c0.879,0.179-25.226-2.582-18.49-11.161
			c-9.673,2.634-22.601,4.792-25.366,5.202c0.175,0.087,0.356,0.175,0.531,0.263c-1.156,1.166-2.306,2.337-3.461,3.513
			c-1.017,0.212-2.049,0.392-3.096,0.542c-1.435-0.764-2.875-1.532-4.314-2.296c-49.826,12.635-107.54,24.316-158.867,23.218
			c-3.864-0.119-30.606-0.588-30.503-3.844c-0.01,0.304,155.853-14.411,177.931-20.2c-1.058,0.16-2.12,0.315-3.178,0.475
			c4.159-0.624,8.235-1.671,12.285-2.812c3.127-2.636,4.422-3.111,7.012-1.847c2.827-0.624,41.704-9.628,42.06-7.692
			c0.265,1.432-2.867,2.964-7.399,4.411C731.04,724.971,736.982,729.471,738.908,738.011z M640.175,722.527
			c11.929-0.511,21.046,2.203,26.386,9.256C652.6,729.725,651.552,731.902,640.175,722.527z M676.813,722.29
			c0.192-0.252,0.382-0.505,0.573-0.763c0.393,0.123,1.022,0.191,1.12,0.376C678.196,722.77,677.628,722.899,676.813,722.29z
			 M693.793,714.659c-0.666,0.413-1.321,0.82-1.976,1.228C688.737,713.24,691.683,713.906,693.793,714.659z M732.009,707.214
			c-24.869-5.377-58.147,9.266-82.717,13.286c-39.181,6.408-80.07,11.093-119.871,11.185l0.005,0.026
			c0.002,0.003,0.005,0.004,0.007,0.007c2.022,1.038,4.109,1.936,6.257,2.702c-2.432,0.077-4.571-0.911-6.257-2.702
			c-0.023-0.012-0.046-0.021-0.069-0.033c-16.521-0.025-33.052,0.418-49.573,0.134c-2.337-0.052-4.659-0.098-6.976-0.145
			c0.795,0.361,1.594,0.727,2.394,1.089c-1.672,7.372-9.178,13.188-10.886,2.517c1.863-1.078,2.844-2.373,3.271-3.802
			c-30.214-1.367-60.742-4.086-90.518-9.359c-24.059,11.516-96.421-15.112-120.867-23.75c1.894-7.559,3.56-15.097,4.592-22.826
			c18.223,25.54,63.431,25.266,90.431,28.135c-0.774-0.913-1.636-1.811-2.658-2.672c3.638-0.542,7.275-1.083,10.913-1.62
			c2.672,1.429,5.35,2.848,8.022,4.272v-0.005c1.047-0.144,2.074-0.325,3.096-0.537c1.151-1.176,2.306-2.353,3.462-3.514
			l-0.005-0.005v-0.005c2.4,0.805,4.803,1.615,7.203,2.425c1.424,1.682,2.843,3.369,4.262,5.056
			c-0.583,0.072-1.125,0.17-1.641,0.279c6.542,1.058,13.363,1.445,19.988,1.594c1.435-1.796,3.349-0.949,4.526,0.119
			c89.166,2.59,175.866,2.667,264.605-11.924c3.019-9.369,27.97-11.263,19.178-3.467c12.238-2.399,25.272-4.354,36.932-8.947
			C729.961,691.973,730.591,699.49,732.009,707.214z M519.763,708.788l1.171,0.227l-0.805,0.599L519.763,708.788z M528.498,704.051
			c3.199-0.16,4.112,1.445,2.729,4.804c-0.542,0.475-1.919,0.567-2.889,0.831C525.706,707.756,525.758,705.878,528.498,704.051z
			 M588.745,704.144c5.691-5.046,15.257-6.677,20.746,0.562C602.464,706.224,595.561,705.826,588.745,704.144z M657.991,692.2
			c2.043-2.193,4.251-1.842,6.625,1.058C662.573,695.538,660.365,695.188,657.991,692.2z M598.471,699.062
			c-36.39,4.5-73.548,4.958-110.212,4.628c-42.164-0.387-83.532-5.877-125.206-11.681c-31.168-4.344-71.387-19.131-101.849-19.544
			c0.031-0.268,0.072-0.542,0.103-0.805c11.506-115.542,10.804-243.663,69.359-347.034c23.821,36.947,131.48,27.392,170.367,25.875
			c41.488-1.62,128.802,5.934,162.447-21.107c52.266,103.69,48.613,236.156,64.871,349.206
			C686.183,677.882,640.258,693.898,598.471,699.062z"/>
		<path style="fill:#1A1A1A;" d="M543.347,328.006c-0.008,0.015-0.016,0.03-0.024,0.045
			C543.616,327.983,543.668,327.963,543.347,328.006z"/>
		<path style="fill:#1A1A1A;" d="M543.946,147.748c-0.062-0.285-0.288-0.567-0.687-0.871l0,0
			C543.658,147.18,543.883,147.462,543.946,147.748z"/>
		<path style="fill:#1A1A1A;" d="M720.622,726.578c-0.079,0.093-0.133,0.181-0.205,0.273c1.28-0.348,2.501-0.705,3.636-1.067
			C722.931,725.914,721.786,726.167,720.622,726.578z"/>
		<path style="fill:#1A1A1A;" d="M536.941,143.854c-0.001-0.001-0.002-0.001-0.003-0.001c-1.047,0.397-2.1,0.795-3.137,1.192
			c-0.004,0.001-0.008,0.002-0.012,0.003c0.002,0,0.005,0.001,0.007,0.002C534.859,144.694,535.91,144.292,536.941,143.854z"/>
		<path style="fill:#1A1A1A;" d="M529.433,731.718c1.686,1.791,3.825,2.779,6.257,2.702
			C533.543,733.655,531.456,732.756,529.433,731.718z"/>
		<path style="fill:#1A1A1A;" d="M537.337,275.266c0.034,0.312,0.13,0.597,0.281,0.857c0.271-0.387,0.526-0.783,0.771-1.182
			C537.706,275.097,537.33,275.209,537.337,275.266z"/>
		<path style="fill:#1A1A1A;" d="M751.115,775.503c0.021-0.042,0.028-0.083,0.021-0.121
			C751.142,775.42,751.118,775.463,751.115,775.503z"/>
		<path style="fill:#1A1A1A;" d="M522.874,671.242c-1.455,19.209,183.462-16.996,191.201-16.438
			C696.93,653.442,522.343,678.729,522.874,671.242z M532.109,674.178c0.526-0.335,1.058-0.676,1.589-1.011
			c0.33,0.542,0.666,1.083,0.996,1.63C533.833,674.591,532.976,674.384,532.109,674.178z"/>
		<path style="fill:#1A1A1A;" d="M602.805,655.64c0.986,8.766,48.128-3.374,49.305-3.415c5.835-1.088,55.485-5.902,55.227-9.561
			C707.218,640.868,602.531,653.313,602.805,655.64z"/>
		<path style="fill:#1A1A1A;" d="M657.578,627.975c-10.629,1.527-23.404,0.336-33.47,3.72c0.005-0.108,0.011-0.211,0.015-0.32
			c-2.12,0.165-44.454,0.944-44.49,2.43c-0.222,9.974,63.318,0.062,64.375-0.077c-0.16-0.996,0.005-1.429,1.429-1.12
			c0.052,0.304,0.114,0.609,0.16,0.913c4.784-0.614,9.411-2.002,14.204-2.719c-0.294-1.001-0.624-1.991-1.068-2.962L657.578,627.975
			z"/>
		<path style="fill:#1A1A1A;" d="M697.348,623.29c-1.001-0.475-1.594-1.187-1.661-1.878c-7.734,1.728-15.664,3.008-23.435,4.561
			c-0.139,1.156-0.062,2.306,0.696,3.204c9.591-1.785,21.691-1.6,30.694-5.799C701.527,624.363,699.432,624.337,697.348,623.29z"/>
		<path style="fill:#1A1A1A;" d="M618.629,616.464c7.796,2.688,80.948-8.999,80.37-13.157
			C698.818,602.002,610.524,613.61,618.629,616.464z"/>
		<path style="fill:#1A1A1A;" d="M694.061,581.018c-11.79,0.831-119.473,15.83-119.505,13.823
			c0.155,9.555,64.071-1.455,66.155-1.749c12.301-1.744,25.189-3.364,37.344-6C682.282,586.177,709.39,579.738,694.061,581.018z"/>
		<path style="fill:#1A1A1A;" d="M610.271,575.074c0.641,6.98,22.919,1.532,25.963,0.996c-0.036-3.864,2.75-5.969,8.364-6.32
			c0.186,1.419,0.372,2.832,0.563,4.246c1.078-0.289,2.167-0.567,3.25-0.835c4.902-1.358,45.765-6.584,45.115-10.753
			C693.38,561.474,610.219,574.522,610.271,575.074z"/>
		<path style="fill:#1A1A1A;" d="M583.338,541.455c0.145,7.316,30.772,2.234,33.779,1.827l0.031-0.077
			c6.888,0.268,78.76-13.085,78.018-17.016c0.097,0.505-86.046,13.053-91.386,13.218
			C601.035,539.515,583.297,539.236,583.338,541.455z"/>
		<path style="fill:#1A1A1A;" d="M607.825,514.625c-0.129,10.814,60.985-1.79,68.565-4.097c0.465-0.977,2.064-2.02,4.806-3.458
			C657.457,509.971,607.813,515.449,607.825,514.625z"/>
		<path style="fill:#1A1A1A;" d="M681.196,507.07c0.315-0.039,0.626-0.076,0.932-0.114c0-0.124,0-0.247,0-0.37
			C681.799,506.754,681.496,506.913,681.196,507.07z"/>
		<path style="fill:#1A1A1A;" d="M682.127,506.957c0,0.992,0,1.987,0,2.979c2.317-0.243,12.032-1.094,11.434-4.561
			C693.581,505.494,689.074,506.103,682.127,506.957z"/>
		<path style="fill:#1A1A1A;" d="M682.896,489.303c-13.585,2.038-131.036,16.412-131.031,14.601
			c-0.02,9.948,75.943-2.017,78.42-2.342c2.193-1.512,8.24-3.627,11.051-2.316c6.186-0.465,55.238-5.738,54.608-10.469
			C695.604,486.228,684.067,489.075,682.896,489.303z"/>
		<path style="fill:#1A1A1A;" d="M680.708,467.292c-10.263,1.795-101.436,13.518-101.42,11.635
			c-0.124,12.527,108.117-7.259,107.576-10.871C686.565,466.018,682.148,467.039,680.708,467.292z"/>
		<path style="fill:#1A1A1A;" d="M676.88,446.654c-8.353,1.703-82.01,12.765-82,10.943c-0.036,9.035,79.281-2.125,86.504-8.776
			C683.985,446.37,678.273,446.37,676.88,446.654z"/>
		<path style="fill:#1A1A1A;" d="M668.537,426.32c-5.463,3.859-24.44,5.593-30.58,6.14c-7.553,0.728-84.982,5.129-85.003,5.588
			c-0.547,13.064,126.294-6.135,125.371-11.846C677.948,423.864,670.023,425.97,668.537,426.32z"/>
		<path style="fill:#1A1A1A;" d="M671.953,402.953c-5.304,0.206-12.115,1.026-17.145,2.585c0.542,0.681-1.821,1.94-2.992,0.779
			c-9.029,2.58-76.659,9.499-76.386,11.898c0.665,6.15,92.164-6.955,100.487-12.801
			C679.135,403.092,672.917,402.907,671.953,402.953z"/>
		<path style="fill:#1A1A1A;" d="M674.373,381.81c0.009,0.033-0.019,0.072-0.054,0.113
			C674.363,381.883,674.383,381.845,674.373,381.81z"/>
		<path style="fill:#1A1A1A;" d="M533.859,402.256c2.41,8.921,137.754-17.165,140.461-20.334
			c-2.601,2.379-99.814,12.045-105.97,12.518C565.554,394.75,532.992,399.114,533.859,402.256z"/>
		<path style="fill:#1A1A1A;" d="M577.26,374.23c0.196,0.707,0.15,1.439,0.103,2.177c7.884,0.16,91.524-16.412,90.797-20.612
			c-0.03-0.191-86.035,14.473-92.154,16.051C576.626,372.527,577.013,373.348,577.26,374.23z"/>
		<path style="fill:#1A1A1A;" d="M586.068,359.288c6.805,2.472,65.655-11.758,64.875-15.489
			C650.665,342.463,578.458,356.461,586.068,359.288z"/>
		<path style="fill:#1A1A1A;" d="M341.848,653.148c-5.036-2.9-65.294-6.124-65.443-5.572
			C274.759,653.529,350.263,658.075,341.848,653.148z"/>
		<path style="fill:#1A1A1A;" d="M278.169,630.08c6.868,4.076,76.598,7.497,77.708,2.038
			C355.912,631.953,270.822,625.643,278.169,630.08z"/>
		<path style="fill:#1A1A1A;" d="M280.073,608.678c6.031,3.715,69.896,5.464,70.21,2.508
			C350.577,608.42,272.751,604.102,280.073,608.678z"/>
		<path style="fill:#1A1A1A;" d="M402.828,589.557c0.01-1.197-118.38-2.131-121.904-4.984
			C292.033,593.297,402.777,595.346,402.828,589.557z"/>
		<path style="fill:#1A1A1A;" d="M336.477,673.641c-15.159-1.594-30.272-6.289-45.487-7.259c-4.086-0.258-28.336-6.119-15.958,0.64
			c9.953,5.371,117.477,18.059,118.018,11.439C393.309,675.246,342.875,674.312,336.477,673.641z"/>
		<path style="fill:#1A1A1A;" d="M285.784,561.912c5.939,3.844,69.535,6.806,69.88,3.926
			C356.01,563.011,278.649,557.217,285.784,561.912z"/>
		<path style="fill:#1A1A1A;" d="M333.964,542.502c-11.614-0.511-23.471-4.061-35.126-3.864c-3.018,0.052-22.707-4.076-12.326,1.981
			c8.019,4.608,90.818,8.952,90.973,3.549C377.587,540.66,339.092,542.724,333.964,542.502z"/>
		<path style="fill:#1A1A1A;" d="M291.836,515.343c5.867,4.896,65.495,8.75,65.712,4.127
			C357.548,519.408,285.975,510.379,291.836,515.343z"/>
		<path style="fill:#1A1A1A;" d="M295.722,489.282c6.862,3.988,79.281,7.007,79.607,3.359
			C375.503,490.592,288.204,484.85,295.722,489.282z"/>
		<path style="fill:#1A1A1A;" d="M339.232,463.711c-0.841,0.738-4.283,3.71-4.726-0.247c-5.087-0.248-41.807-5.526-33.32-0.568
			c8.466,4.876,94.816,9.22,94.785,2.982C395.971,464.434,346.151,464.15,339.232,463.711z"/>
		<path style="fill:#1A1A1A;" d="M305.628,434.772c6.315,3.632,72.563,4.241,72.764,1.435
			C378.609,433.193,298.291,430.474,305.628,434.772z"/>
		<path style="fill:#1A1A1A;" d="M311.54,406.843c6.935,3.627,84.193,8.725,84.585,6.485
			C396.848,409.222,303.141,402.38,311.54,406.843z"/>
		<path style="fill:#1A1A1A;" d="M319.352,378.538c7.146,4.613,83.274,11.583,83.723,7.146
			C403.173,384.683,312.155,373.812,319.352,378.538z"/>
		<path style="fill:#1A1A1A;" d="M330.971,356.781c7.316,4.922,85.07,13.136,85.54,8.095
			C416.531,364.654,323.949,351.977,330.971,356.781z"/>
		<path style="fill:#1A1A1A;" d="M266.018,391.917c0.093,0.061,0.186,0.119,0.279,0.181c-0.108,0-0.222,0-0.336,0
			c-0.645,1.935-1.228,3.895-1.739,5.871c-0.696,2.678-5.311,21.036-7.144,32.759c9.759-37.345,74.598-167.941,83.181-161.984
			C328.377,257.585,268.382,384.816,266.018,391.917z"/>
		<path style="fill:#1A1A1A;" d="M257.072,440.556c-1.111-0.167-0.866-4.25,0.006-9.828
			C255.519,436.698,255.363,440.29,257.072,440.556z"/>
		<path style="fill:#1A1A1A;" d="M340.26,268.744c0.076,0.071,0.158,0.124,0.231,0.206
			C340.419,268.869,340.342,268.801,340.26,268.744z"/>
		<path style="fill:#1A1A1A;" d="M259.739,472.586c0.005,1.795,0.01,3.591,0.016,5.386c0.211-0.862,0.391-1.661,0.5-2.348
			C261.21,472.813,261.034,471.801,259.739,472.586z"/>
		<path style="fill:#1A1A1A;" d="M251.123,494.137c-14.256,59.149-6.269,121.182-19.931,180.846
			c1.754-1.404,2.987-3.101,4.324-4.912c11.898-58.395,10.732-118.065,20.968-176.646
			C254.745,494.163,252.955,494.4,251.123,494.137z"/>
		<path style="fill:#1A1A1A;" d="M229.303,683.052c-2.115,8.895-4.597,17.589-8.028,26.071c1.496-0.619,2.946-0.65,4.339-0.082
			c3.266-8.379,5.294-17.222,7.157-25.999C231.992,682.64,230.856,682.588,229.303,683.052z"/>
		<path style="fill:#1A1A1A;" d="M207.004,749.904c2.631,1.522,13.518-27.247,14.529-29.966c-1.367-0.294-2.683-0.743-3.958-1.352
			C215.693,723.446,204.161,748.279,207.004,749.904z"/>
		<path style="fill:#1A1A1A;" d="M191.076,803.232c-5.995,9.803-12.924,18.858-19.084,28.594
			c-1.874,2.961-17.249,24.543-6.868,14.194c8.199-8.008,63.276-90.977,58.803-93.31
			C217.39,749.295,192.367,801.127,191.076,803.232z"/>
		<path style="fill:#1A1A1A;" d="M211.88,869.285c-0.475,0.929-1.321,1.739-3.203,2.208c-0.516,0.129-1.002,0.108-1.451-0.005
			c2.792,5.587,43.613,21.169,46.348,14.999C254.208,885.047,214.222,876.1,211.88,869.285z"/>
		<path style="fill:#1A1A1A;" d="M596.985,221.829c0.067,0.067,0.119,0.124,0.191,0.186c11.269,10.012,24.703,17.274,36.572,26.608
			c-16.242-15.754-31.271-28.937-31.324-28.992C600.69,220.492,598.884,221.225,596.985,221.829z"/>
		<path style="fill:#1A1A1A;" d="M670.668,301.141c10.088-1.896-6.578-21.919-25.96-41.643
			C653.216,271.413,671.489,300.984,670.668,301.141z"/>
		<path style="fill:#1A1A1A;" d="M633.748,248.623c3.646,3.536,7.349,7.199,10.961,10.874c-1.597-2.237-2.851-3.853-3.568-4.534
			C638.774,252.72,636.295,250.626,633.748,248.623z"/>
		<path style="fill:#1A1A1A;" d="M591.083,212.882c-0.041,0.052-0.015,0.15-0.035,0.207c0.427-0.072,0.83-0.16,1.238-0.253
			C591.718,212.655,591.268,212.64,591.083,212.882z"/>
		<path style="fill:#1A1A1A;" d="M704.034,344.981c4.566-1.404,34.816,191.619,32.402,214.671
			c-0.366,4.561-3.699,36.684-0.238,37.298C747.452,598.958,727.913,337.479,704.034,344.981z"/>
		<path style="fill:#1A1A1A;" d="M747.432,612.785c-20.763,0.289,38.164,155.321,47.57,169.82c0.51-0.299,1.016-0.604,1.47-0.914
			c-0.501-2.383-1.259-4.762-1.573-7.146C786.019,758.629,736.88,612.935,747.432,612.785z"/>
		<path style="fill:#1A1A1A;" d="M758.56,592.173c0.098,0.624,5.082,47.524,6.893,47.343c8.358-0.799-2.471-47.586-2.76-48.974
			C761.439,591.523,760.062,592.065,758.56,592.173z"/>
		<path style="fill:#1A1A1A;" d="M750.403,522.261c-4.04,0.361,7.357,53.483,7.193,61.481c1.269-0.434,2.548-0.846,3.9-1.094
			c-0.578-15.009-5.711-30.292-6.769-45.424C754.494,534.598,753.778,521.952,750.403,522.261z"/>
		<path style="fill:#1A1A1A;" d="M800.863,799.796c-11.232,4.933,34.161,62.497,37.009,60.413c1.971-1.44-1.708-5.02-2.477-6.047
			C831.49,848.554,799.44,800.431,800.863,799.796z"/>
		<path style="fill:#1A1A1A;" d="M752.601,887.188c-12.538,3.958-127.951,29.224-127.909,25.973
			c-0.235,14.777,77.105-8.329,128.491-26.013C752.938,887.194,752.74,887.21,752.601,887.188z"/>
		<path style="fill:#1A1A1A;" d="M756.256,886.086c-1.014,0.352-2.038,0.706-3.074,1.062
			C753.853,887.023,754.901,886.653,756.256,886.086z"/>
		<path style="fill:#1A1A1A;" d="M756.256,886.086c20.481-7.105,36.315-13.166,40.505-15.259c1.47-0.768,15.504-7.786,14.096-10.577
			C809.526,857.615,769.147,880.693,756.256,886.086z"/>
		<path style="fill:#1A1A1A;" d="M286.172,895.531c-0.609,3.426,21.876,7.724,25.915,8.214
			c10.459,1.135,159.253,9.137,159.449,1.228C471.439,909.152,285.903,897.053,286.172,895.531z"/>
	</g>
</g>
</svg>
